<svg xmlns="http://www.w3.org/2000/svg" viewBox="0 0 375 144.75"><defs><clipPath id="a"><path d="M.32 0h374.36v144.5H.32Zm0 0"/></clipPath><clipPath id="c"><path d="M10.98 11.63h353.2v121.04H10.98Zm0 0"/></clipPath><clipPath id="d"><path d="M20.45 11.63h334.1a9.47 9.47 0 0 1 9.47 9.46V123.2a9.46 9.46 0 0 1-9.47 9.47H20.45a9.46 9.46 0 0 1-9.47-9.47V21.1a9.47 9.47 0 0 1 9.47-9.46m0 0"/></clipPath><clipPath id="f"><path d="M.98.63h353.2v121.04H.98Zm0 0"/></clipPath><clipPath id="g"><path d="M10.45.63h334.1a9.47 9.47 0 0 1 9.47 9.46V112.2a9.46 9.46 0 0 1-9.47 9.47H10.45a9.46 9.46 0 0 1-9.47-9.47V10.1A9.47 9.47 0 0 1 10.45.63m0 0"/></clipPath><clipPath id="e"><path d="M0 0h355v122H0z"/></clipPath><clipPath id="h"><path d="M.32 0h374.14v143.73H.32Zm0 0"/></clipPath><clipPath id="b"><path d="M0 0h375v145H0z"/></clipPath></defs><g clip-path="url(#a)"><g clip-path="url(#b)"><g clip-path="url(#c)"><g clip-path="url(#d)"><g clip-path="url(#e)" transform="translate(10 11)"><g clip-path="url(#f)"><g clip-path="url(#g)"><path fill="#fff" d="M.98.63h353.2v121.04H.98Zm0 0"/></g></g></g></g></g><g clip-path="url(#h)"><path fill="#254aa0" d="M32.98.42A32.54 32.54 0 0 0 .32 32.97v77.8a32.54 32.54 0 0 0 32.66 32.55H341.8a32.54 32.54 0 0 0 32.67-32.55v-77.8A32.54 32.54 0 0 0 341.79.42Zm41.36 15.1 27.24 26.77-3.22 3.18-24.02-23.6Q62.4 33.58 50.44 45.34l-3.22-3.18zm163.75 2.37q13.32 0 22.52 5.65a35.3 35.3 0 0 1 13.8 15.5q4.6 9.88 4.6 22.45 0 13.4-4.9 23.15a34.7 34.7 0 0 1-14.09 14.99q-9.2 5.23-21.7 5.23-13.08 0-22.35-5.4A34.7 34.7 0 0 1 202 84.35q-4.71-9.7-4.71-22.52 0-13.28 4.71-23.2a34.6 34.6 0 0 1 13.86-15.34q9.14-5.4 22.23-5.4m-70.63 1.4h16.97v84.16h-16.97Zm125.1 0h35.25q6.15 0 10.2.36 4.07.35 7.26 1.53a21 21 0 0 1 9.84 7.28 19 19 0 0 1 4.07 12q0 6.81-3.77 11.63-3.78 4.81-8.14 6.58 8.49 2.47 12.27 8.12A21.5 21.5 0 0 1 363.3 79a25 25 0 0 1-4.24 13.87 20.5 20.5 0 0 1-11.44 8.81q-3.19 1.06-8.03 1.41-4.83.36-11.79.36h-35.26ZM74.33 25.69l22.09 21.7-3.22 3.19-18.88-18.55L55.6 50.44l-3.22-3.18zm163.75 6.78q-12.15 0-17.7 8.11-5.53 8.1-5.53 20.8 0 9.88 3.18 16.34t8.5 9.52a23 23 0 0 0 11.67 3.06q5.9 0 11.08-2.7 5.19-2.72 8.67-9.23 3.47-6.53 3.47-17.22 0-12.58-5.54-20.62-5.55-8.07-17.8-8.06m71.45 1.06v19.27h19.1q13.9 0 13.91-9.63a9 9 0 0 0-5.66-8.7q-2.25-.94-8.6-.94Zm-235.2 2.3 16.93 16.65-3.22 3.19-13.7-13.48-13.6 13.35-3.23-3.18zm29.15 8.34 27.1 26.63-3.22 3.18-23.88-23.45-23.97 23.55-3.22-3.18q13.6-13.34 27.2-26.73m-58.36.05 27.33 26.85-3.23 3.18-24.1-23.69-23.9 23.48-3.2-3.19zm58.36 10.11 21.95 21.56-3.23 3.18-18.72-18.38-18.81 18.48-3.23-3.18zm-58.36.05 22.18 21.78-3.23 3.18-18.95-18.62L26.4 79.12l-3.22-3.17zm58.36 10.11 16.79 16.5-.51.5-2.4 2.37-.31.3-13.57-13.31-13.65 13.41-3.23-3.18zm-58.36.04 17.01 16.72-3.21 3.18-13.8-13.55-13.58 13.35-3.22-3.18zm264.4 2.5v22.2h17.7q6.12 0 9.54-.47a11 11 0 0 0 6.43-3.23q2.54-2.64 2.53-6.99 0-4.94-2.47-7.46-2.47-2.53-6.66-3.29a63 63 0 0 0-10.9-.77ZM132.53 72.8v6.34l-29.14 28.65-27.93-27.44v-6.36l27.93 27.44zm-116.5.18 29.08 28.57 27.96-27.48v6.36L45.1 107.9 16.02 79.33Zm116.5 9.97v6.35q-14.57 14.33-29.14 28.63L75.45 90.5v-6.35l27.93 27.44zm-116.5.19L45.1 111.7l27.96-27.48v6.36L45.1 118.06 16.02 89.48Zm116.5 9.96v6.36q-14.57 14.32-29.14 28.63l-27.93-27.44v-6.34l27.93 27.44zm-116.5.2 29.08 28.57L73.06 94.4v6.35L45.1 128.21 16.02 99.64Zm161 17.12q3.93 0 4.82 3.48l-1.4.4-.1-.36a4 4 0 0 0-.29-.67 2 2 0 0 0-.43-.58 3.6 3.6 0 0 0-2.56-.94 4.1 4.1 0 0 0-3.2 1.26q-1.14 1.27-1.14 3.46 0 2.32 1.2 3.52t3.32 1.2q.83 0 1.8-.38a5 5 0 0 0 1.49-.84v-2.2h-3.5v-1.38h5v4.36a9 9 0 0 1-2.37 1.38q-1.2.45-2.54.46a6.5 6.5 0 0 1-3.15-.75 5.2 5.2 0 0 1-2.12-2.11 6.5 6.5 0 0 1-.75-3.18q0-1.8.7-3.17a5.2 5.2 0 0 1 2.06-2.18q1.33-.78 3.16-.78Zm30.97.2h1.45v11.77h-1.35v-1.08q-.25.42-.84.84-.58.42-1.54.42a3.4 3.4 0 0 1-1.88-.54q-.84-.56-1.33-1.58a5.4 5.4 0 0 1-.48-2.37q0-1.34.44-2.34.46-.99 1.3-1.53.83-.54 1.94-.54.8 0 1.4.38.6.39.89.8Zm44.98 0h1.46v11.77h-1.46Zm88.01 0h1.45v1.64h-1.45Zm8.25 0h1.45v4.22q.5-.57 1.12-.87t1.45-.3q.7 0 1.25.22.57.23.95.57.39.38.57.96.18.57.18 1.48v5.5h-1.45v-5.47q0-.97-.46-1.48-.45-.52-1.37-.52-.66 0-1.26.37-.58.36-.82 1.02-.16.5-.16 1.27v4.8h-1.45Zm-77.16.26v3h1.46v1.08h-1.46v5.27q0 .56.16.8.15.23.65.23.12 0 .65-.09l.2 1.29q-.65.12-1.06.13-.84 0-1.29-.27-.45-.28-.6-.76t-.15-1.26v-5.34h-1.06v-1.08h1.06v-2.13Zm74.25 0v3h1.46v1.08h-1.46v5.27q0 .56.16.8.15.23.66.23.11 0 .64-.09l.21 1.29q-.66.12-1.07.13-.84 0-1.29-.27-.45-.28-.6-.76t-.15-1.26v-5.34h-1.06v-1.08h1.06v-2.13Zm-158.65 2.8q.97 0 1.88.43.92.42 1.52 1.42t.6 2.6q0 1.42-.51 2.43-.5.99-1.42 1.5-.9.51-2.07.51a3.8 3.8 0 0 1-2.8-1.07q-1.21-1.17-1.21-3.37 0-1.42.5-2.43.52-1 1.42-1.52a4 4 0 0 1 2.09-.5m9.17 0q.97 0 1.89.43.9.42 1.51 1.42.6 1 .6 2.6 0 1.42-.5 2.43-.52.99-1.43 1.5t-2.07.51a3.8 3.8 0 0 1-2.8-1.07q-1.2-1.17-1.2-3.37 0-1.42.5-2.43.51-1 1.41-1.52a4 4 0 0 1 2.09-.5m23.24 0a3.4 3.4 0 0 1 3.2 2.06q.45.97.45 2.26a6 6 0 0 1-.5 2.44q-.5 1.04-1.34 1.58a3.4 3.4 0 0 1-1.89.55 2.8 2.8 0 0 1-2.25-1.07v4.16h-1.45v-11.78h1.32v1.1q.48-.66 1.05-.98.57-.33 1.4-.33m8.9 0q1.25 0 2.13.58.88.57 1.32 1.57.45.98.45 2.2v.47h-6.38q.06 1.35.77 2.13.7.76 1.82.76.84 0 1.39-.45t.85-1.3l1.5.19a3.7 3.7 0 0 1-1.3 2.01q-.97.73-2.38.73-1.96 0-3.06-1.15a4.5 4.5 0 0 1-1.1-3.22q0-1.39.5-2.4.5-1.03 1.39-1.57.9-.56 2.1-.56m9.13 0q.97 0 1.89.43.9.42 1.52 1.42.6 1 .6 2.6 0 1.42-.51 2.43a3.6 3.6 0 0 1-1.42 1.5q-.9.51-2.08.51a3.8 3.8 0 0 1-2.8-1.07q-1.2-1.17-1.2-3.37 0-1.42.5-2.43.52-1 1.42-1.52.9-.5 2.08-.5Zm9.48 0a3.4 3.4 0 0 1 3.2 2.06q.45.97.45 2.26a6 6 0 0 1-.5 2.44q-.48 1.04-1.34 1.58a3.4 3.4 0 0 1-1.88.55 2.8 2.8 0 0 1-2.25-1.07v4.16h-1.45v-11.78h1.32v1.1q.48-.66 1.04-.98.58-.33 1.41-.33m12.58 0q1.23 0 2.12.58a3.6 3.6 0 0 1 1.32 1.57q.45.98.45 2.2v.47h-6.38q.06 1.35.77 2.13.7.76 1.82.76.84 0 1.39-.45t.85-1.3l1.5.19a3.6 3.6 0 0 1-1.3 2.01q-.97.73-2.38.73-1.96 0-3.06-1.15a4.5 4.5 0 0 1-1.1-3.22q0-1.39.5-2.4.5-1.03 1.39-1.57.9-.56 2.1-.56m18.3 0q.96 0 1.88.43.9.42 1.51 1.42.6 1 .6 2.6 0 1.42-.5 2.43-.52.99-1.42 1.5t-2.08.51a3.8 3.8 0 0 1-2.8-1.07q-1.2-1.17-1.2-3.37 0-1.42.5-2.43.5-1 1.42-1.52.9-.5 2.08-.5m13.45 0q1.48 0 2.47 1.21v-1.02h1.34v7.5q0 1.87-.48 2.78-.41.77-1.24 1.23t-2.14.46q-1.09 0-1.86-.34a2.7 2.7 0 0 1-1.15-.92 2 2 0 0 1-.39-1.23l.01-.25 1.41.2v.05q.1.67.6.99.48.32 1.45.32.63 0 1.13-.21.48-.22.77-.6.24-.34.33-.8.1-.48.1-1.15v-.63a3 3 0 0 1-2.35 1.12q-1.11 0-1.95-.55t-1.31-1.54a5 5 0 0 1-.47-2.23q0-1.32.46-2.3.45-1.02 1.31-1.55a3.6 3.6 0 0 1 1.96-.55m9.12 0q.75 0 1.48.46l-.5 1.33q-.54-.3-1.1-.31-.83 0-1.22.75t-.39 1.93v4.55h-1.45v-8.51h1.3v1.28q.42-.75.82-1.12.4-.36 1.06-.37m5.84 0q.97 0 1.89.43.92.42 1.52 1.42t.6 2.6a5 5 0 0 1-.51 2.43 3.6 3.6 0 0 1-1.42 1.5q-.9.51-2.08.51a3.8 3.8 0 0 1-2.8-1.07q-1.2-1.17-1.2-3.37 0-1.42.5-2.43.52-1 1.42-1.52.9-.5 2.08-.5m4.67.2h1.5l1.53 5.57.34 1.16q.06-.3.11-.42.2-.84.42-1.65l1.26-4.67h1.5l1.24 4.8.47 1.77.4-1.34 1.56-5.22h1.42l-2.7 8.51h-1.5l-1.38-5.16q-.1-.38-.31-1.4l-1.72 6.56h-1.51Zm16.5 0h1.5l1.53 5.57.33 1.16q.06-.3.12-.42l.41-1.65 1.27-4.67h1.5l1.24 4.8.46 1.77.4-1.34 1.56-5.22h1.43l-2.7 8.51h-1.5l-1.38-5.16q-.1-.38-.32-1.4l-1.72 6.56h-1.5Zm12.93 0h1.45v8.51h-1.45Zm-121.03.93q-.68 0-1.2.42a3 3 0 0 0-.84 1.2q-.3.76-.3 1.75 0 1.54.62 2.38a2 2 0 0 0 1.66.83q1.03 0 1.7-.85a4 4 0 0 0 .65-2.47 4 4 0 0 0-.63-2.39 2 2 0 0 0-1.66-.87m27.52 0q-.68 0-1.21.42a3 3 0 0 0-.83 1.2q-.3.76-.3 1.75 0 1.54.61 2.38a2 2 0 0 0 1.67.83q1.03 0 1.69-.85.66-.87.66-2.47a4 4 0 0 0-.63-2.39 2 2 0 0 0-1.67-.87Zm-59.82.05q-1.12 0-1.81.86-.7.87-.7 2.4 0 1.56.69 2.41t1.84.86q1.14 0 1.82-.85.7-.84.7-2.41 0-1.5-.68-2.39a2.2 2.2 0 0 0-1.86-.88m9.17 0q-1.12 0-1.81.86-.7.87-.7 2.4 0 1.56.69 2.41t1.84.86q1.14 0 1.82-.85.7-.84.7-2.41 0-1.5-.68-2.39a2.2 2.2 0 0 0-1.86-.88m8.96 0q-1.08 0-1.68.87t-.6 2.4q0 1.05.3 1.79.33.73.86 1.1.55.37 1.18.37a2 2 0 0 0 1.65-.8q.63-.81.63-2.33 0-1.54-.6-2.47-.62-.93-1.74-.93m23.2 0q-1.01 0-1.66.7a2.7 2.7 0 0 0-.74 1.73h4.77q-.06-1.21-.76-1.82-.7-.6-1.6-.61m9.11 0q-1.12 0-1.81.86a3.8 3.8 0 0 0-.69 2.4q0 1.56.68 2.41t1.84.86q1.14 0 1.83-.85.7-.84.7-2.41 0-1.5-.68-2.39a2.2 2.2 0 0 0-1.87-.88m22.08 0a2.2 2.2 0 0 0-1.68.7 2.7 2.7 0 0 0-.73 1.73h4.76q-.04-1.21-.75-1.82-.7-.6-1.6-.61m18.27 0q-1.12 0-1.81.86-.7.87-.7 2.4 0 1.56.7 2.41.68.86 1.83.86 1.13 0 1.83-.85.7-.84.7-2.41 0-1.5-.69-2.39a2.2 2.2 0 0 0-1.86-.88m13.55 0q-1.02 0-1.67.83a3.6 3.6 0 0 0-.64 2.27q0 1.59.64 2.42a2.1 2.1 0 0 0 1.75.83q.45 0 1.06-.3.6-.31.97-1.13.28-.66.28-1.71 0-1.54-.66-2.37a2.1 2.1 0 0 0-1.73-.84m14.88 0q-1.12 0-1.82.86-.7.87-.7 2.4 0 1.56.7 2.41.68.86 1.83.86 1.14 0 1.83-.85.7-.84.7-2.41 0-1.5-.68-2.39a2.2 2.2 0 0 0-1.86-.88m0 0"/></g></g></g></svg>