<?xml version="1.0" encoding="UTF-8" standalone="no"?> <svg viewBox="0 0 160.26839 26.848728" version="1.1" id="svg1" xml:space="preserve" xmlns:xlink="http://www.w3.org/1999/xlink" xmlns="http://www.w3.org/2000/svg" xmlns:svg="http://www.w3.org/2000/svg"><defs id="defs1"><color-profile name="GRACoL2013_CRPC6.icc" xlink:href="" id="color-profile2" /></defs><g id="g1" transform="matrix(0.26458333,0,0,0.26458334,-9.8796893,-3.0664953)"><path style="fill:#21357f;fill-opacity:1;fill-rule:evenodd;stroke:none" d="m 3549.24,7870.21 c 12.46,0 22.53,-8.46 22.53,-18.91 0,-10.44 -10.07,-18.91 -22.53,-18.91 -12.43,0 -22.53,8.47 -22.53,18.91 0,10.45 10.1,18.91 22.53,18.91" transform="matrix(0.18155692,0,0,-0.18155692,-54.020051,1441.2635)" id="path98" /><path style="fill:#21357f;fill-opacity:1;fill-rule:evenodd;stroke:none" d="m 3435.85,7821.04 h -63.48 c -2.83,0 -5.17,-2.32 -5.17,-5.16 v -6.61 c 0,-2.84 2.34,-5.16 5.17,-5.16 h 134.08 v -30.18 c -14.67,11.98 -36.86,19.62 -61.71,19.62 -44.14,0 -79.94,-24.13 -79.94,-53.89 0,-29.77 35.8,-53.9 79.94,-53.9 24.85,0 47.04,7.64 61.71,19.62 v -11.15 c 0,-2.15 1.64,-3.91 3.67,-3.91 h 41.52 c 2.02,0 3.69,1.76 3.69,3.91 v 109.88 h 120.21 v -23.88 c -11.6,8.98 -27.05,14.46 -44.02,14.46 -35.95,0 -65.11,-24.63 -65.11,-55.01 0,-30.39 29.16,-55.02 65.11,-55.02 16.97,0 32.42,5.48 44.02,14.47 V 7694 c 0,-2.16 1.64,-3.92 3.67,-3.92 h 41.52 c 2.03,0 3.69,1.76 3.69,3.92 v 51.91 1.05 c 53.72,37.95 88.55,-26.1 30.8,-30.2 -4.37,0.01 -7.72,0.22 -7.67,-4.07 l 0.13,-13.66 c 0,-1.74 0.36,-3.77 3.61,-4.79 45.19,-15.08 87.67,1.57 88.27,45.2 0.6,44.36 -63.6,72.46 -115.14,36.6 v 28.07 h 103.72 c 2.86,0 5.18,2.32 5.18,5.16 v 6.61 c 0,2.84 -2.32,5.16 -5.18,5.16 H 3539.2 l -41.59,45.33 c -2.01,2.18 -5.41,3.96 -7.6,3.96 h -35.49 c -2.18,0 -2.34,-1.78 -0.33,-3.96 l 41.6,-45.33 z m 24.56,-54.61 25.59,-43.49 z m 3.48,-49.19 -25.52,43.39 z m -3.48,49.19 c 0.64,0.07 1.3,0.14 1.95,0.19 24.34,2.04 44.09,-7.39 44.09,-21.06 0,-8.79 -8.17,-17.2 -20.45,-22.62 z m 3.48,-49.19 c -0.52,-0.05 -1.01,-0.1 -1.53,-0.14 -24.35,-2.05 -44.1,7.38 -44.1,21.06 0,8.71 8.01,17.04 20.11,22.47 z m 211.65,35.71 v -17.34 z m 0,-17.34 c -4.68,-8.75 -16.18,-14.94 -29.65,-14.94 -17.59,0 -31.87,10.57 -31.87,23.61 0,13.04 14.28,23.61 31.87,23.61 13.47,0 24.97,-6.19 29.65,-14.94 z m -196.27,85.43 h 16.52 z m -43.42,0 -41.6,45.33 c -2,2.18 -1.85,3.96 0.31,3.96 h 35.51 c 2.19,0 5.59,-1.78 7.6,-3.96 l 41.6,-45.33 z" transform="matrix(0.18155692,0,0,-0.18155692,-54.020051,1441.2635)" id="path97" /><path style="fill:#21357f;fill-opacity:1;fill-rule:evenodd;stroke:none" d="m 3143.11,7684.92 c 12.2,0 22.06,-8.29 22.06,-18.53 0,-10.23 -9.86,-18.52 -22.06,-18.52 -12.18,0 -22.04,8.29 -22.04,18.52 0,10.24 9.86,18.53 22.04,18.53 z" transform="matrix(0.18155692,0,0,-0.18155692,-54.020051,1441.2635)" id="path96" /><path style="fill:#21357f;fill-opacity:1;fill-rule:evenodd;stroke:none" d="m 2335.55,7746.27 h -33.94 c 3.04,-4.93 4.72,-10.35 4.72,-16.03 0,-23.2 -28.05,-42.01 -62.66,-42.01 -18.34,0 -34.85,5.28 -46.29,13.56 l -2.71,35.86 c 3.43,-6.49 14.76,-11.85 28.63,-12.88 17.18,-1.29 31.75,4.55 32.54,13.03 0.79,8.48 -12.5,16.4 -29.67,17.69 h -14.71 c -2.99,0 -5.43,2.44 -5.43,5.43 v 13.56 c 0,2.98 2.44,5.43 5.43,5.43 H 2227 c 0.99,-0.03 2.8,0.04 4.64,0.19 16.88,1.41 29.95,10.11 29.17,19.42 -0.78,9.32 -15.1,15.73 -31.99,14.32 -14.63,-1.22 -26.39,-7.91 -28.77,-15.73 l -4.91,31.88 c 11.36,11.66 30.76,19.34 52.77,19.34 35,0 63.38,-19.42 63.38,-43.36 0,-13.91 -9.58,-26.29 -24.46,-34.22 h 48.72 z m -116.88,-54.57 0.12,-1.62 z m 116.88,54.57 v -52.5 c 0,-2.03 1.65,-3.69 3.68,-3.69 h 42.91 c 2.02,0 3.68,1.66 3.68,3.69 v 110.34 h 20.31 v -110.34 c 0,-2.03 1.66,-3.69 3.69,-3.69 h 42.9 c 2.03,0 3.69,1.66 3.69,3.69 v 110.34 h 115.88 v -24.68 c -11.45,10.63 -17.75,14.77 -47.2,15.37 -29.45,0.61 -60.14,-19.5 -61.13,-54.35 -1,-34.85 34.75,-54.36 61.13,-54.36 26.39,0 35.99,3.29 47.2,15.38 v -7.7 c 0,-2.03 1.67,-3.69 3.69,-3.69 h 41.52 c 2.02,0 3.68,1.66 3.68,3.69 v 110.34 h 72.14 c 43.19,-33.06 -13.33,-65.67 -22.96,-26.7 -0.96,2.14 -1.38,3.57 -4.74,2.24 -9.42,-3.98 -18.83,-7.96 -28.24,-11.94 -3.1,-1.83 -3.73,-2.64 -3.03,-5.28 14.92,-54.27 55.04,-80.83 119.08,-71.13 1.87,0.23 4.88,0.73 5.07,3.99 0,6.5 0,13.01 0,19.52 -0.08,3.8 -3.14,4.07 -7,4.34 -17.5,-0.55 -33.7,0.66 -48.57,8.21 -2.95,1.98 -1.15,5.38 1.13,5.28 49.82,6.65 66.89,37.13 45.16,71.47 h 76.82 c 41.4,-32.8 -14.35,-64.63 -23.91,-25.95 -0.95,2.13 -1.38,3.56 -4.74,2.24 -9.42,-3.98 -18.83,-7.97 -28.24,-11.95 -3.1,-1.82 -3.73,-2.64 -3.03,-5.28 14.93,-54.26 55.04,-80.82 119.08,-71.12 1.88,0.23 4.89,0.73 5.08,3.97 0,6.52 0,13.03 0,19.53 -0.08,3.8 -3.15,4.08 -7,4.34 -17.51,-0.55 -33.71,0.67 -48.58,8.22 -2.94,1.97 -1.15,5.37 1.13,5.27 16.05,2.14 32.36,7.7 41.42,14.12 l 48.98,0.04 v -53.77 c 0,-2.03 1.66,-3.69 3.69,-3.69 h 41.52 c 2.03,0 3.7,1.66 3.7,3.69 v 110.34 h 23.64 v -110.34 c 0,-2.03 1.67,-3.69 3.7,-3.69 H 3044 c 2.02,0 3.66,1.66 3.66,3.69 v 110.34 h 196.8 v -30.9 h -95.11 c -4.06,-0.54 -6.32,-2.58 -6.5,-6.34 l -0.13,-11.69 c -0.73,-4.98 1.58,-7.59 6.63,-8.08 33.51,-7.74 13.58,-30.78 -0.67,-31.75 -32.97,-1.74 -41.18,12.31 -44.18,33.01 -0.12,5.64 -2.68,7.77 -9.54,6.66 -11.53,-2.14 -20.66,-4.72 -32.83,-7.18 -2.55,-0.1 -5.13,-4.63 -3.83,-6.97 7.81,-34.87 37.47,-49.53 76.46,-50.79 50.36,-6.54 90.09,33.01 73.83,48.74 -1.8,6.59 -1.12,7.04 3.07,7.2 h 31.34 1.46 v -52.25 c 0,-2.03 1.67,-3.69 3.67,-3.69 h 41.52 c 2.03,0 3.69,1.66 3.69,3.69 v 110.34 h 16.08 c 2.03,0 3.67,1.66 3.67,3.69 v 9.56 c 0,2.03 -1.64,3.68 -3.67,3.68 h -260.3 v 22.63 c 0,14.6 -11.94,26.54 -26.53,26.54 h -71.15 c -14.62,0 -26.56,-11.94 -26.56,-26.54 v -22.63 h -481.36 l -58.11,51.83 c -1.02,0.91 -2.59,1.65 -3.5,1.65 h -49.81 c -0.9,0 -0.81,-0.74 0.2,-1.65 l 58.11,-51.83 h -64.27 c -2.03,0 -3.69,-1.65 -3.69,-3.68 v -9.56 c 0,-2.03 1.66,-3.69 3.69,-3.69 h 9.41 v -32.36 z m 590.68,26.53 v 31.31 h -44.77 c 6.84,-11.08 9.63,-21.74 8.58,-31.31 z m 70.71,48.24 v 14.23 c 0,5.27 -4.32,9.58 -9.58,9.58 h -1.35 c -5.26,0 -9.57,-4.31 -9.57,-9.58 v -14.23 z m -426.12,-86.77 v 20.45 c -5.13,8.94 -12.93,12.98 -28.84,12.98 -15.92,0 -31.64,-9.17 -31.64,-23.2 0,-14.04 15.72,-23.93 31.64,-23.93 15.91,0 23.71,4.77 28.84,13.7 z" transform="matrix(0.18155692,0,0,-0.18155692,-54.020051,1441.2635)" id="path95" /><path style="fill:#21357f;fill-opacity:1;fill-rule:evenodd;stroke:none" d="m 1310.93,7821.04 v 25.5 c 0,14.02 11.47,25.49 25.49,25.49 h 315.35 c 14.02,0 25.5,-11.47 25.5,-25.49 v -25.47 l 453.57,-0.06 c 7.19,0 7.84,-15.99 0,-16.35 h -26.04 c -7.75,0 -7.8,-0.25 -7.71,-11.94 0.1,-11.46 0,-91.07 0,-91.07 0,-13.52 -0.52,-11.49 -25.78,-11.57 -25.27,-0.08 -23.26,-1.08 -23.58,11.57 0.04,11.5 0.09,32.37 0,38.9 -0.09,6.54 -1.15,6.56 -20.04,6.41 -10.74,0.06 -22.95,0.11 -33.69,0.17 17.31,-16.66 -1.79,-41.52 -28.73,-42.31 -26.94,-0.79 -37.47,24.47 -37.74,33.93 -0.27,9.47 -0.64,34.52 43.58,32.75 23.3,0 46.6,0 69.91,0 4.65,-0.48 7.27,1.2 6.71,6.23 v 19.41 c -0.08,5.46 -0.41,6.96 -7.32,7.06 -37.5,0.52 -75.39,-0.66 -109.98,0.01 -20.54,-0.41 -16.99,1.92 -16.8,-14.15 -0.85,-29.5 0.52,-59 -0.34,-88.5 -0.11,-12.13 -4.93,-10.61 -24.64,-11.1 -19.7,-0.48 -22.85,-0.16 -22.78,11.1 l -0.11,18.05 c -2.16,1.13 -4.32,1.05 -6.49,-0.13 -20.89,-13.37 -45.42,-20.15 -73.84,-19.84 -43.18,2.38 -57.95,16.72 -74.93,44.57 -6.77,11.11 7,19.1 17.7,10.96 23.63,-16.69 50.65,-0.69 51.04,20.75 -0.38,12.88 -8.55,24.88 -21.22,28.19 h -80.75 v -29.15 c -0.08,-4.8 -5.36,-4.81 -15.62,-4.71 -20.67,-0.05 -41.35,-0.11 -62.02,-0.16 -8.33,0.2 -11.43,-13.38 -1.32,-15.46 22.36,-3.79 48.55,0.97 72.05,-1.03 15.69,-0.42 31.44,-12.03 30.55,-27.16 0.3,-14.71 -11.14,-25.83 -30.42,-32.31 -33.4,-9.51 -69.21,-12.64 -107.87,-1.67 -13.46,4.07 -32.53,11.94 -35.15,17.06 -0.76,4.34 -0.59,8.39 -0.62,11.5 -0.04,3.11 2.5,5.91 10.08,1.36 12.76,-7.65 39.58,-12.33 60.18,-13.18 18.5,-1.94 47.22,5.31 46.81,15.69 -1.55,17.27 -37.35,7.91 -60.06,8.87 -49.35,3.08 -58.76,18.5 -59.22,30.67 1.11,12.9 9.32,23.16 28.29,28.29 22.9,2.85 46.28,1.78 68.8,-0.27 1.59,-0.34 2.33,11.66 0.28,11.66 h -98.29 c -10.61,0 -9.12,0 -9.21,-8.45 l 0.67,-50.09 c -7.3,-20.61 -26.54,-32.97 -64.12,-32.62 -30.58,2.18 -58.82,15.7 -75.01,45.57 l 0.02,45.59 c 0,1.96 -13.26,2.46 -13.26,0 v -101.4 -4.52 c 0,-4.46 -3.65,-8.11 -8.11,-8.11 h -35.66 c -4.46,0 -8.11,3.65 -8.11,8.11 v 9.05 0.6 z m 514.77,-17.02 c 12.39,0 27.88,0 40.26,0 0,-14.16 -0.19,-28.31 -0.19,-42.47 -19.93,-22.7 -53.58,-42.88 -80.82,-27.66 42.76,5.3 71.64,42.76 40.75,70.13 z m -395.18,0.09 c 0,-15.12 0,-29.53 0,-44.65 5.11,-17.2 24.96,-14.19 25.29,0 -0.49,14.96 0.49,29.69 0,44.65 -7.94,0.16 -17.35,-0.16 -25.29,0 z m -61.82,37.03 h 247.15 c 3.25,0 5.9,-2.66 5.9,-5.9 v -12.72 c 0,-0.81 -0.66,-1.48 -1.47,-1.48 h -256 c -0.81,0 -1.48,0.67 -1.48,1.48 v 12.72 c 0,3.24 2.66,5.9 5.9,5.9 z" transform="matrix(0.18155692,0,0,-0.18155692,-54.020051,1441.2635)" id="path94" /><path style="fill:#21357f;fill-opacity:1;fill-rule:evenodd;stroke:none" d="m 1310.93,7707.84 v 91.28 c 0,4.99 0,5.18 -5.76,5.18 h -26.96 c -2.41,-3.08 -2.37,-12.82 0.37,-20.62 2.03,-10.95 -2.61,-14.49 -14.5,-11.23 -20.34,2.68 -35.9,4.61 -53.1,2.48 -17.19,-2.13 -22.95,-3.46 -19.7,-12.27 4.18,-5.81 16.87,-4.29 25.34,-4.63 20.28,-0.82 40.61,1.7 60.42,-4.22 29.48,-9.2 27.93,-30.78 12.82,-43.64 -6.68,-6.17 -14.62,-11.37 -32.2,-13.83 l 1.02,-8.13 c 0.62,-4.72 -2.24,-6.61 -6.53,-7.33 l -21.16,-5.07 c -6.74,-2.28 -11.32,-0.99 -12.44,5.98 l -5.88,11.76 c -19.29,-3.47 -90.21,-3.47 -92.28,23.95 -0.75,10.21 5.63,15.98 26.23,14.67 12.72,-0.22 55.9,-3.76 61.46,-5.76 17.8,-9.74 38.2,-2.68 32.63,3.8 -1.16,1.34 -5.07,3.42 -10.39,3.83 -42.13,-2.01 -76.07,0.57 -92.97,9.38 -22.35,13.04 -21.01,32.16 0.75,44.17 15.09,6.14 33.84,8.31 67.29,6.45 6.75,-0.74 12.09,-2.75 15.2,-1.19 1.89,1.25 2.77,7.13 -0.36,11.26 -27.34,0 -68.34,0 -95.68,0 -5.53,0 -5.95,16.93 -0.31,16.93 h 186.69 v 26.5 z" transform="matrix(0.18155692,0,0,-0.18155692,-54.020051,1441.2635)" id="path49" /><path style="fill:#21357f;fill-opacity:1;fill-rule:evenodd;stroke:none" d="m 3111.01,7576.82 c -9.71,29.23 -105.07,33.62 -115.56,-3.28 -9.2,-32.49 47.74,-35.03 75.37,-36.36 14.54,-0.7 16.02,-13.59 2.55,-16.5 -20.01,-3.4 -33.64,-2.87 -43.19,8.33 -10.64,0.69 -21.28,0.26 -31.92,0.95 -5.9,-0.2 -7.65,-1.99 -3.64,-7.22 18.03,-21.86 38.29,-21.95 57.7,-22.17 60.25,-0.71 66.39,24 66.75,30.76 1.51,27.45 -29.96,32.59 -68.23,32.99 -19.54,0.21 -24.74,17 0,17.54 17.45,0.37 21.8,-4.81 28.33,-9.97 13.01,0.31 17.9,0.45 29.29,0.24 2.16,0.14 3.8,1.39 2.55,4.69" transform="matrix(0.18155692,0,0,-0.18155692,-54.020051,1441.2635)" id="path144" /><path style="fill:#21357f;fill-opacity:1;fill-rule:evenodd;stroke:none" d="m 2660.2,7576.82 c -9.67,29.23 -104.76,33.62 -115.2,-3.28 -9.19,-32.49 47.59,-35.03 75.14,-36.36 14.49,-0.7 15.97,-13.59 2.54,-16.5 -19.95,-3.4 -33.54,-2.87 -43.05,8.33 -10.61,0.69 -21.22,0.26 -31.83,0.95 -5.89,-0.2 -7.62,-1.99 -3.62,-7.22 17.96,-21.86 38.16,-21.95 57.52,-22.17 60.05,-0.71 66.19,24 66.56,30.76 1.49,27.45 -29.9,32.59 -68.05,32.99 -19.46,0.21 -24.66,17.01 0,17.54 17.41,0.37 21.75,-4.81 28.25,-9.97 12.98,0.31 17.86,0.45 29.2,0.24 2.17,0.14 3.79,1.39 2.54,4.69 z" transform="matrix(0.18155692,0,0,-0.18155692,-54.020051,1441.2635)" id="path143" /><path style="fill:#21357f;fill-opacity:1;fill-rule:evenodd;stroke:none" d="m 2144.39,7599.98 h 34.08 c 2.98,0 6.59,-2.44 8.03,-5.42 7.34,-15.24 15.05,-36.2 22.39,-51.44 1.54,-4.94 4.68,-5.02 6.48,-0.37 l 20.68,52.29 c 1.09,2.76 4.39,4.94 7.11,4.94 h 31.1 c 2.72,0 3.97,-2.23 2.77,-4.94 l -39.35,-89.55 c -1.2,-2.72 -4.4,-4.94 -7.12,-4.94 h -4.2 -26.9 -7.18 c -2.98,0 -6.59,2.43 -8.03,5.41 l -42.67,88.6 c -1.44,2.98 -0.17,5.42 2.81,5.42 z" transform="matrix(0.18155692,0,0,-0.18155692,-54.020051,1441.2635)" id="path142" /><path style="fill:#21357f;fill-opacity:1;fill-rule:evenodd;stroke:none" d="m 2046.73,7633.27 c 60.47,0 85.72,-32.72 86.14,-65.92 0.43,-33.2 -30.63,-66.8 -86.14,-66.8 -55.5,0 -86.13,32.09 -86.13,66.8 0,34.7 25.67,65.92 86.13,65.92 z m -0.07,-23.61 c 26.32,0.37 35.17,-19.02 35.17,-42.48 0,-23.47 -6.98,-42.49 -35.17,-42.49 -28.18,0 -35.16,19.02 -35.16,42.49 0,23.46 8.85,42.12 35.16,42.48 z" transform="matrix(0.18155692,0,0,-0.18155692,-54.020051,1441.2635)" id="path141" /><path style="fill:#21357f;fill-opacity:1;fill-rule:evenodd;stroke:none" d="m 3337.8,7567.41 c 20.34,-1.96 32.75,-19.37 31.58,-32.2 -0.42,-18.55 -31.56,-34.66 -55.15,-34.66 -30.72,0 -61.44,0 -92.17,0 -5.17,-0.34 -9,1.15 -8.82,8.09 v 91.34 c 0,8.47 0,16.95 0,25.43 0.19,6.17 3.52,8.28 8.82,7.86 h 93.71 c 22.99,0 48.62,-14.41 47.96,-31.22 0.27,-11.97 -4.68,-25.11 -25.93,-28.81 -2.81,-0.78 -2.65,-4.58 0,-5.83 z m -68.03,40.86 h 33.77 c 6.92,0 12.57,-5.64 12.57,-12.55 0,-6.9 -5.65,-12.55 -12.57,-12.55 h -33.77 c -3.33,0 -6.03,2.71 -6.03,6.02 v 13.06 c 0,3.31 2.7,6.02 6.03,6.02 z m 0.29,-53.52 h 37.15 c 7.23,0 13.16,-5.92 13.16,-13.16 0,-7.25 -5.93,-13.17 -13.16,-13.17 h -37.15 c -3.49,0 -6.32,2.84 -6.32,6.31 v 13.71 c 0,3.47 2.83,6.31 6.32,6.31 z" transform="matrix(0.18155692,0,0,-0.18155692,-54.020051,1441.2635)" id="path140" /><path style="fill:#21357f;fill-opacity:1;fill-rule:evenodd;stroke:none" d="m 2413.43,7531.12 c 4.82,0.07 5.03,-1.92 2.33,-5.23 -10.26,-14.51 -30.48,-25.34 -60.66,-25.34 -38.35,0 -69.44,22.26 -69.44,49.72 0,27.45 31.09,49.71 69.44,49.71 45.9,0 68.76,-25.05 68.58,-50.01 -0.66,-4.4 -3.31,-6.06 -7.4,-5.75 -28.14,0 -56.96,0 -85.05,0 -2.75,-21.72 33.8,-31.16 52.36,-13 9.95,-0.28 19.89,0.01 29.84,-0.1 z m -79.7,30.5 c 17.49,-0.27 17.12,-0.26 44.97,0 0.18,25.07 -45.99,23.11 -44.97,0 z" transform="matrix(0.18155692,0,0,-0.18155692,-54.020051,1441.2635)" id="path139" /><path style="fill:#21357f;fill-opacity:1;fill-rule:evenodd;stroke:none" d="m 2812.39,7531.12 c 4.81,0.07 5.04,-1.92 2.32,-5.23 -10.25,-14.51 -30.48,-25.34 -60.66,-25.34 -38.34,0 -69.43,22.26 -69.43,49.72 0,27.45 31.09,49.71 69.43,49.71 45.91,0 68.77,-25.05 68.59,-50.01 -0.66,-4.4 -3.31,-6.06 -7.41,-5.75 -28.13,0 -56.95,0 -85.04,0 -2.74,-21.72 33.79,-31.16 52.36,-13 9.95,-0.28 19.9,0.01 29.84,-0.1 z m -79.7,30.51 c 17.49,-0.28 17.12,-0.27 44.97,0 0.17,25.06 -45.99,23.1 -44.97,0 z" transform="matrix(0.18155692,0,0,-0.18155692,-54.020051,1441.2635)" id="path138" /><path style="fill:#21357f;fill-opacity:1;fill-rule:evenodd;stroke:none" d="m 3398.57,7569.21 c -4.66,0.4 -4.73,2.15 -4.14,5.18 12.67,28.56 81.35,35.88 110.04,16.79 6.61,-4.52 14.1,-7.73 14.44,-22.51 0.75,-19.69 -1.09,-36.97 -0.34,-56.65 0,-11.56 0.45,-11.56 -5.3,-11.56 -8.82,0.21 -18.37,-0.13 -27.19,0 -6.32,0 -6.04,0 -5.96,6 0,0.92 -0.08,1.83 -0.08,2.74 0.29,4.3 -4.78,4.95 -6.79,2.83 -13.96,-11.48 -24.81,-12.42 -42.97,-12.26 -27.91,0.25 -43.03,14.96 -41.55,26.66 3.02,21.26 23.06,29.95 49.74,32.83 9.71,0 21.55,1.02 31.22,1.02 7.39,0.38 5.8,3.46 6.06,6.04 1.82,23.71 -36.34,17.65 -42.92,5.49 -2.24,-3.98 -5.72,-4.01 -8.64,-3.74 -12.8,0.64 -18.89,0.79 -25.62,1.14 z m 74.5,-23.92 c -25.31,-1.63 -42.74,-6.88 -36.42,-20.95 4.17,-7.38 19.02,-8.22 28.88,-2.27 8.11,6.1 9.93,15.46 7.54,23.22 z" transform="matrix(0.18155692,0,0,-0.18155692,-54.020051,1441.2635)" id="path137" /><path style="fill:#21357f;fill-opacity:1;fill-rule:evenodd;stroke:none" d="m 2847.04,7568.26 c -4.68,0.4 -4.75,2.09 -4.16,5.04 12.69,27.81 81.35,34.93 110.04,16.35 6.61,-4.4 14.13,-7.52 14.44,-21.92 0.75,-19.17 -1.07,-35.99 -0.31,-55.16 0,-11.26 0.41,-11.26 -5.31,-11.26 -8.82,0.22 -18.39,-0.11 -27.21,0 -6.32,0 -6.01,0 -5.96,5.85 0,0.89 -0.08,1.78 -0.08,2.67 0.31,4.19 -4.78,4.82 -6.79,2.75 -12.98,-10.02 -24.81,-12.03 -42.97,-11.93 -29.32,0.17 -43.02,14.56 -41.53,25.95 3,20.71 23.03,29.17 49.75,31.97 9.68,0 21.54,0.99 31.21,0.99 7.37,0.38 5.8,3.38 6.04,5.89 1.85,23.09 -36.34,17.18 -42.92,5.34 -2.24,-3.87 -5.73,-3.9 -8.64,-3.63 -12.79,0.62 -18.87,0.76 -25.6,1.1 z m 74.48,-23.3 c -25.31,-1.57 -42.74,-6.69 -36.42,-20.39 4.16,-7.18 19.04,-8 28.88,-2.21 8.11,5.94 9.93,15.05 7.54,22.6 z" transform="matrix(0.18155692,0,0,-0.18155692,-54.020051,1441.2635)" id="path136" /><path style="fill:#21357f;fill-opacity:1;fill-rule:evenodd;stroke:none" d="m 3625.2,7601.6 c 19.02,-0.6 39.31,-9.35 42.46,-26.12 v -70.93 c 0,-2.2 -1.8,-4 -4.01,-4 h -34.44 c -2.21,0 -4.01,1.8 -4.01,4 v 26.75 30.34 c 0,9.26 -7.57,16.84 -16.85,16.84 h -4.61 c -9.28,0 -16.85,-7.58 -16.85,-16.84 v -30.34 -26.54 c 0,-2.31 -1.91,-4.21 -4.22,-4.21 h -36.21 c -2.34,0 -4.21,1.9 -4.21,4.21 v 91.01 c 0,2.32 1.87,4.21 4.21,4.21 h 19.07 13.29 c 2.32,0 4.22,-1.89 4.22,-4.21 v -14.03 c 8.6,11.97 23.51,19.89 40.45,19.89 0.57,0 1.14,-0.01 1.71,-0.03 z" transform="matrix(0.18155692,0,0,-0.18155692,-54.020051,1441.2635)" id="path135" /><path style="fill:#21357f;fill-opacity:1;fill-rule:evenodd;stroke:none" d="m 2492.39,7546.3 v -41.54 c 0,-2.31 -1.9,-4.21 -4.21,-4.21 h -36.23 c -2.31,0 -4.21,1.9 -4.21,4.21 v 91.01 c 0,2.32 1.9,4.21 4.21,4.21 h 32.39 c 2.32,0 4.89,-1.9 4.89,-4.21 v -10.06 c -0.02,-1.56 2.52,-0.98 3.78,0.47 0.76,0.88 1.85,1.91 2.97,3.43 4.04,5.46 11.43,12.13 30.85,11.21 6.16,0.19 3.85,-7.58 4.22,-16.14 0.52,-11.7 -0.3,-16.23 -4.35,-16.8 -6.88,-0.89 -13.32,-1.24 -18.66,-3.18 -8.82,-3.81 -15.6,-10.83 -15.65,-18.4 z" transform="matrix(0.18155692,0,0,-0.18155692,-54.020051,1441.2635)" id="path134" /><path style="fill:#21357f;fill-opacity:1;fill-rule:evenodd;stroke:none" d="m 3749.06,7566.1 35.25,29.67 c 2.81,2.35 7.12,4.21 9.55,4.21 h 37.69 c 2.39,0 2.06,-1.89 -0.78,-4.21 l -46.49,-38.06 51.43,-52.95 c 2.24,-2.31 1.82,-4.21 -0.96,-4.21 h -45.76 c -2.78,0 -7.03,1.77 -9.16,4.21 l -25.33,29.19 c -4.3,3.95 -14.34,-3.07 -13.82,-11.9 v -17.29 c 0,-2.31 -1.9,-4.21 -4.22,-4.21 h -36.21 c -2.31,0 -4.21,1.9 -4.21,4.21 v 124.29 c 0,2.32 1.9,4.22 4.21,4.22 h 36.21 c 2.32,0 4.22,-1.9 4.22,-4.22 0,-21.01 0,-42.02 0,-63.03 0.34,-5.52 6.11,-2.08 8.38,0.08 z" transform="matrix(0.18155692,0,0,-0.18155692,-54.020051,1441.2635)" id="path133" /><path style="fill:#21357f;fill-opacity:1;fill-rule:evenodd;stroke:none" d="M 1282.77,7561.64 V 7531.3 Z" transform="matrix(0.18155692,0,0,-0.18155692,-54.020051,1441.2635)" id="path132" /><path style="fill:#21357f;fill-opacity:1;fill-rule:evenodd;stroke:none" d="m 1244.45,7561.64 v -56.88 c 0,-2.31 -1.9,-4.21 -4.21,-4.21 h -36.23 c -2.31,0 -4.21,1.9 -4.21,4.21 v 91.01 c 0,2.32 1.9,4.21 4.21,4.21 h 32.39 c 2.31,0 4.21,-1.89 4.21,-4.21 v -11.43 c -0.15,-1.9 0.97,-1.33 1.77,-0.3 8.8,10.67 22.85,17.59 38.67,17.59 19.75,0 40.12,-7.73 44.19,-26.15 v -70.93 c 0,-2.2 -1.81,-4 -4.01,-4 h -34.45 c -2.2,0 -4.01,1.8 -4.01,4 v 57.09 c 0,9.26 -7.58,16.84 -16.84,16.84 h -4.63 c -9.27,0 -16.85,-7.58 -16.85,-16.84 z" transform="matrix(0.18155692,0,0,-0.18155692,-54.020051,1441.2635)" id="path131" /><path style="fill:#21357f;fill-opacity:1;fill-rule:evenodd;stroke:none" d="m 1588.2,7569.3 c -4.67,0.41 -4.74,2.15 -4.15,5.19 12.68,28.55 81.35,35.87 110.04,16.78 6.61,-4.52 14.11,-7.73 14.44,-22.51 0.76,-19.68 -1.08,-36.97 -0.33,-56.65 0,-11.56 0.43,-11.56 -5.31,-11.56 -8.82,0.22 -18.37,-0.13 -27.19,0 -6.32,0 -6.03,0 -5.96,6 0,0.91 -0.08,1.83 -0.08,2.75 0.3,4.29 -4.78,4.94 -6.79,2.83 -14.49,-12.27 -26.91,-11.76 -42.97,-12.26 -25.42,-0.8 -43.02,14.95 -41.54,26.65 3,21.27 23.04,29.95 49.75,32.83 9.68,0 21.53,1.02 31.21,1.02 7.38,0.38 5.8,3.47 6.05,6.05 1.83,23.71 -36.35,17.65 -42.92,5.48 -2.25,-3.98 -5.74,-4 -8.63,-3.73 -12.81,0.63 -18.88,0.79 -25.62,1.13 z m 74.48,-23.92 c -25.3,-1.62 -42.73,-6.88 -36.41,-20.95 4.16,-7.38 19.02,-8.22 28.87,-2.26 8.13,6.09 9.94,15.45 7.54,23.21 z" transform="matrix(0.18155692,0,0,-0.18155692,-54.020051,1441.2635)" id="path130" /><path style="fill:#21357f;fill-opacity:1;fill-rule:evenodd;stroke:none" d="m 1820.88,7601.6 c 19,-0.6 37.21,-8.05 42.46,-26.12 v -70.93 c 0,-2.2 -1.81,-4 -4.01,-4 h -34.45 c -2.2,0 -4,1.8 -4,4 v 26.75 30.34 c 0,9.26 -7.59,16.84 -16.86,16.84 h -4.62 c -9.27,0 -16.85,-7.58 -16.85,-16.84 v -30.34 -26.54 c 0,-2.31 -1.9,-4.21 -4.21,-4.21 h -36.23 c -2.31,0 -4.21,1.9 -4.21,4.21 v 91.01 c 0,2.32 1.9,4.21 4.21,4.21 h 19.07 13.32 c 2.32,0 4.21,-1.89 4.21,-4.21 v -14.03 c 8.61,11.97 23.51,19.89 40.45,19.89 0.57,0 1.14,-0.01 1.72,-0.03 z" transform="matrix(0.18155692,0,0,-0.18155692,-54.020051,1441.2635)" id="path129" /><path style="fill:#21357f;fill-opacity:1;fill-rule:evenodd;stroke:none" d="m 1440.08,7514.07 c -9.54,-9.78 -22.97,-15.88 -37.85,-15.88 -28.95,0 -52.43,23.1 -52.43,51.59 0,28.49 23.48,51.59 52.43,51.59 13.11,0 22.69,-2.93 31.88,-10.75 2.33,-1.91 6.44,-0.54 5.97,2.31 v 36.53 c 0,2.1 1.71,3.81 3.8,3.81 h 32.69 c 2.09,0 3.8,-1.71 3.8,-3.81 v -125.11 c 0,-2.09 -1.71,-3.8 -3.8,-3.8 h -32.69 c -2.09,0 -3.8,1.71 -3.8,3.8 z m -22.5,65.19 c 11.11,0 20.2,-9.09 20.2,-20.2 v -18.11 c 0,-11.11 -9.09,-20.2 -20.2,-20.2 -11.12,0 -20.2,9.09 -20.2,20.2 v 18.11 c 0,11.11 9.08,20.2 20.2,20.2 z" transform="matrix(0.18155692,0,0,-0.18155692,-54.020051,1441.2635)" id="path128" /><path style="fill:#21357f;fill-opacity:1;fill-rule:evenodd;stroke:none" d="m 1520.14,7636.95 h 29.82 c 3.65,0 6.63,-2.99 6.63,-6.63 v -17.01 c 0,-3.64 -2.98,-6.62 -6.63,-6.62 h -29.82 c -3.63,0 -6.61,2.98 -6.61,6.62 v 17.01 c 0,3.64 2.98,6.63 6.61,6.63 z" transform="matrix(0.18155692,0,0,-0.18155692,-54.020051,1441.2635)" id="path127" /><path style="fill:#21357f;fill-opacity:1;fill-rule:evenodd;stroke:none" d="m 1516.94,7599.98 h 36.23 c 2.31,0 4.21,-1.89 4.21,-4.21 v -91.01 c 0,-2.31 -1.9,-4.21 -4.21,-4.21 h -36.23 c -2.31,0 -4.21,1.9 -4.21,4.21 v 91.01 c 0,2.32 1.9,4.21 4.21,4.21 z" transform="matrix(0.18155692,0,0,-0.18155692,-54.020051,1441.2635)" id="path126" /><path style="fill:#21357f;fill-opacity:1;fill-rule:evenodd;stroke:none" d="m 1124.41,7633.27 h 36.23 c 2.31,0 4.21,-1.9 4.21,-4.22 v -124.29 c 0,-2.31 -1.9,-4.21 -4.21,-4.21 h -36.23 c -2.32,0 -4.21,1.9 -4.21,4.21 v 124.29 c 0,2.32 1.89,4.22 4.21,4.22 z" transform="matrix(0.18155692,0,0,-0.18155692,-54.020051,1441.2635)" id="path51" /><path style="fill:#21357f;fill-opacity:1;fill-rule:nonzero;stroke:none" d="m 2556.65,7361.11 h -31.95 v -30.09 c 3.62,-1.99 7.44,-2.98 11.45,-2.98 6.19,0 13.03,4.01 20.5,12.03 z m 0,-38.72 c -5.52,-4.4 -11.42,-6.58 -17.67,-6.58 -4.27,0 -9.53,2.83 -15.79,8.47 -0.77,-3.91 -2.28,-6.99 -4.52,-9.33 -2.25,-2.31 -5.26,-3.85 -9.02,-4.59 l 25.92,-26.31 -6.77,-5.64 -21.97,24.44 c -4.53,5.01 -8.31,9.92 -11.39,14.76 -3.05,4.81 -4.59,9.3 -4.59,13.41 0,1.89 0.74,3.46 2.25,4.71 1.51,1.26 3.27,1.9 5.26,1.9 1.19,0 3.4,-0.96 6.58,-2.83 1.89,0 2.82,1.26 2.82,3.76 v 22.55 h -21.24 l -8.47,15.05 h 108.66 l 8.47,-15.05 h -21.62 v -78.95 l -16.91,11.29 z m 84.41,38.72 h -21.62 v -78.95 l -16.91,11.29 v 67.66 h -13.92 l -8.47,15.05 h 52.45 z m 62.24,-54.5 c -7.66,-7.54 -16.42,-11.3 -26.34,-11.3 -6.83,0 -13.6,2.76 -20.3,8.25 -6.71,5.45 -12.13,12.73 -16.34,21.85 9.89,0 17.43,2.18 22.56,6.57 -6.64,2.44 -12.06,6.1 -16.27,10.94 -4.2,4.85 -6.29,9.98 -6.29,15.37 0,5.2 1.99,9.62 5.97,13.32 3.98,3.65 8.89,5.48 14.7,5.48 7.4,0 14.11,-3.14 20.11,-9.4 6.03,-6.26 9.02,-13.15 9.02,-20.66 0,-6.61 -3.08,-12.83 -9.24,-18.74 -6.2,-5.87 -14.06,-10.62 -23.65,-14.18 1.25,-2.5 2.6,-4.39 4.01,-5.65 1.38,-1.25 2.89,-1.85 4.46,-1.85 7.25,0 14.31,2.11 21.18,6.32 6.86,4.23 12.35,9.97 16.42,17.16 v 31.02 h -5.64 l -8.47,15.05 h 44.17 l 8.48,-15.05 h -21.63 v -78.95 l -16.91,11.29 z m -36.67,29.12 c 6.96,7.03 10.43,14.41 10.43,22.18 0,3.2 -0.9,5.1 -2.66,5.71 -1.8,0.57 -3.5,0.86 -5.14,0.86 -3.56,0 -6.77,-1.41 -9.62,-4.2 -2.86,-2.82 -4.3,-6.32 -4.3,-10.46 0,-2.86 1.09,-5.64 3.21,-8.31 2.11,-2.66 4.81,-4.59 8.08,-5.78 z m 121.08,25.38 h -21.62 v -78.95 l -16.91,11.29 v 67.66 h -13.93 l -8.46,15.05 H 2752 c -1.21,6.77 -3.59,12.67 -7.21,17.74 -3.6,5.1 -7.77,7.64 -12.55,7.64 -3.69,0 -6.77,-1.38 -9.24,-4.14 -2.47,-2.76 -3.72,-6.1 -3.72,-9.98 0,-1.57 0.58,-4.07 1.7,-7.51 h -9.4 c -2.89,4.34 -4.33,9.34 -4.33,15.05 0,5.68 1.86,10.56 5.55,14.6 3.69,4.04 8.31,6.06 13.79,6.06 7.86,0 14.95,-3.69 21.31,-11.1 6.35,-7.38 10.55,-16.84 12.54,-28.36 h 18.8 l 8.47,-15.05" transform="matrix(0.13333333,0,0,-0.13333333,0,1080)" id="path169" /><path style="fill:#21357f;fill-opacity:1;fill-rule:nonzero;stroke:none" d="m 2301.15,7311.29 c -8.53,-10.01 -17.94,-15.02 -28.2,-15.02 -5.07,0 -10.72,2.96 -16.97,8.92 -6.23,5.94 -9.34,11.42 -9.34,16.43 0,4.33 1.57,8.08 4.68,11.29 h -15.04 l -6.58,15.05 h 61.12 l 10.33,-15.05 z m -1.89,21.62 h -20.67 c -5.06,0 -9.49,-1.76 -13.21,-5.29 -3.72,-3.56 -5.58,-7.73 -5.58,-12.58 0,-1.6 0.74,-3.11 2.24,-4.49 1.51,-1.38 3.27,-2.09 5.26,-2.09 3.08,0 8.02,2.16 14.83,6.42 6.8,4.24 12.51,10.27 17.13,18.03 z" transform="matrix(0.13333333,0,0,-0.13333333,0,1080)" id="path168" /><path style="fill:#21357f;fill-opacity:1;fill-rule:nonzero;stroke:none" d="m 2195.5,7361.11 h -31.95 v -30.09 c 3.62,-1.99 7.44,-2.98 11.45,-2.98 6.2,0 13.03,4.01 20.5,12.03 z m 0,-38.72 c -5.52,-4.4 -11.42,-6.58 -17.68,-6.58 -4.27,0 -9.52,2.83 -15.78,8.47 -0.77,-3.91 -2.28,-6.99 -4.52,-9.33 -2.25,-2.31 -5.27,-3.85 -9.02,-4.59 l 25.92,-26.31 -6.77,-5.64 -21.97,24.44 c -4.53,5.01 -8.31,9.92 -11.39,14.76 -3.05,4.81 -4.59,9.3 -4.59,13.41 0,1.89 0.74,3.46 2.25,4.71 1.51,1.26 3.27,1.9 5.26,1.9 1.18,0 3.4,-0.96 6.58,-2.83 1.89,0 2.82,1.26 2.82,3.76 v 22.55 h -21.24 l -8.47,15.05 h 108.66 l 8.47,-15.05 h -21.62 v -78.95 l -16.91,11.29 z m 108.47,38.72 h -76.51 l -8.48,15.05 h 76.52 z m 106.03,0 h -21.62 v -78.95 l -16.9,12.22 v 14.08 c -3.6,-4.13 -7.87,-7.34 -12.84,-9.65 -5,-2.34 -10.1,-3.5 -15.37,-3.5 -5.06,0 -10.74,2.99 -16.97,8.95 -6.22,5.94 -9.37,11.42 -9.37,16.43 0,5.2 1.25,9.27 3.79,12.22 h -12.22 l -8.47,15.05 h 55.47 l 8.43,-15.05 h -16.9 c -4.72,-0.86 -8.54,-2.85 -11.52,-5.96 -2.98,-3.12 -4.46,-6.74 -4.46,-10.95 0,-2.34 0.93,-4.33 2.76,-5.96 1.86,-1.67 4.07,-2.5 6.64,-2.5 4.94,0 10.17,1.92 15.66,5.74 5.45,3.82 10.58,9.11 15.37,15.88 v 31.95 h -74.09 l -8.46,15.05 h 112.61 z m 45.88,0 h -21.62 v -78.95 l -16.91,11.29 v 67.66 h -13.92 l -8.47,15.05 h 52.45 z" transform="matrix(0.13333333,0,0,-0.13333333,0,1080)" id="path167" /><path style="fill:#21357f;fill-opacity:1;fill-rule:nonzero;stroke:none" d="m 2048.89,7361.11 h -54.74 v -22.55 c 5.39,3.14 11.04,4.68 16.94,4.68 5.59,0 10.88,-3.33 15.91,-10.01 5.07,-6.67 7.58,-13.02 7.58,-19.12 0,-9.59 -3.12,-18.99 -9.4,-28.2 l -15.05,10.36 c 7.54,13.03 11.29,21.47 11.29,25.35 0,2.28 -0.61,4.08 -1.89,5.45 -1.25,1.38 -2.79,2.09 -4.68,2.09 -7.58,0 -14.47,-3.75 -20.7,-11.29 v -35.71 l -16.9,10.33 v 15.97 c -7.57,-6.25 -14.15,-9.39 -19.73,-9.39 -6.32,0 -12.77,3.36 -19.32,10.1 -6.54,6.74 -9.82,13.41 -9.82,19.99 0,6.06 2.34,11.2 7.09,15.37 4.72,4.17 10.49,6.25 17.33,6.25 6.83,0 14.98,-5.64 24.45,-16.94 v 27.27 h -54.7 l -8.48,15.05 h 126.34 z m -70.71,-34.77 c -6.26,6.25 -12.84,9.39 -19.73,9.39 -3.89,0 -7.19,-1.37 -9.95,-4.07 -2.76,-2.73 -4.14,-6.06 -4.14,-10.04 0,-2.37 0.8,-4.36 2.44,-6 1.63,-1.64 3.63,-2.44 6,-2.44 6.16,0 10.84,1.57 14.11,4.69 z m 116.55,34.77 h -21.62 v -78.95 l -16.91,11.29 v 67.66 h -13.92 l -8.48,15.05 h 52.46 z" transform="matrix(0.13333333,0,0,-0.13333333,0,1080)" id="path166" /><path style="fill:#21357f;fill-opacity:1;fill-rule:nonzero;stroke:none" d="m 1634.29,7361.11 h -30.07 v -20.69 c 0,-7.06 3.02,-12.9 9.08,-17.52 6.04,-4.61 13.03,-6.9 20.99,-6.9 z m 0,-56.4 -47,-22.55 -5.62,10.33 41.54,17.87 c -10.16,3.37 -18.66,7.96 -25.56,13.73 -6.9,5.74 -10.36,11.84 -10.36,18.22 v 18.8 h -11.46 l -8.47,15.05 h 97.02 l 8.44,-15.05 h -21.59 v -78.95 l -16.94,9.4 z m 88.35,56.4 h -24.44 v -46.07 c 0,-1.66 -0.39,-3.2 -1.13,-4.55 -0.74,-1.35 -1.64,-2.03 -2.63,-2.03 -4.08,0 -9.17,2.93 -15.27,8.77 -6.13,5.8 -9.18,10.74 -9.18,14.75 0,1.25 0.71,2.34 2.09,3.27 1.38,0.97 3.17,1.42 5.45,1.42 h 5.62 v 24.44 h -16.91 l -8.47,15.05 h 94.93 l 8.47,-15.05 h -21.62 v -78.95 l -16.91,9.4 z m 84.41,0 h -21.62 v -78.95 l -17.01,11.36 v 67.59 h -13.83 l -8.46,14.95 h 25.57 c -2.96,2.89 -5.4,6.26 -7.39,10.14 -1.95,3.88 -2.95,7.48 -2.95,10.72 0,7.09 2.98,13.09 8.92,18 5.97,4.94 13,7.37 21.08,7.37 10.88,0 22.17,-3.49 33.88,-10.52 11.68,-7.02 22.97,-16.97 33.88,-29.9 l -3.85,-2.89 c -9.79,9.63 -19.29,16.88 -28.52,21.75 -9.28,4.85 -18.22,7.29 -26.95,7.29 -6.58,0 -11.97,-1.67 -16.17,-4.97 -4.2,-3.34 -6.29,-7.32 -6.29,-11.94 0,-5.97 1.29,-10.97 3.85,-15.05 h 17.29 z m 84.89,0 h -21.63 v -78.95 l -16.93,11.29 v 39.46 h -16.91 c -4.2,0 -7.77,-1.47 -10.68,-4.46 -2.89,-2.98 -4.37,-6.51 -4.37,-10.58 0,-4.88 1.35,-9.82 4.04,-14.86 2.7,-5 6.39,-9.43 11.01,-13.34 l -5.65,-5.62 c -7.25,7.25 -12.99,14.89 -17.19,22.91 -4.21,8.02 -6.29,15.43 -6.29,22.2 0,5.07 2.08,9.47 6.25,13.18 4.17,3.76 9.27,5.62 15.37,5.62 h 24.42 v 13.15 h -53 l -8.47,15.05 h 91.56 z" transform="matrix(0.13333333,0,0,-0.13333333,0,1080)" id="path165" /><path style="fill:#21357f;fill-opacity:1;fill-rule:nonzero;stroke:none" d="m 1253.66,7361.11 h -30.09 v -78.95 l -16.91,9.4 v 26.31 c -1.86,-1.26 -4.39,-1.87 -7.51,-1.87 -5.84,0 -12.09,2.83 -18.79,8.44 3.1,-4.49 4.68,-9.14 4.68,-13.89 0,-5.64 -1.86,-10.84 -5.59,-15.62 -3.72,-4.75 -9.07,-7.13 -16.04,-7.13 -8.24,0 -16.23,3.34 -23.9,10.05 -7.67,6.7 -14.12,15.59 -19.31,26.59 l 5.65,3.79 c 3.36,-7.28 7.85,-13.25 13.44,-17.87 5.55,-4.65 11.42,-6.96 17.55,-6.96 4.71,0 8.69,1.67 12,5.03 3.27,3.34 4.93,7.45 4.93,12.26 0,3.75 -1.25,6.9 -3.75,9.4 -6.29,-3.63 -12.86,-5.71 -19.76,-6.19 l -5.65,13.73 c 4.53,0 10.36,1.22 17.49,3.66 7.15,2.44 10.72,7.15 10.72,14.17 0,2.77 -1.07,5.01 -3.18,6.77 -2.15,1.77 -4.85,2.64 -8.09,2.64 -7.47,0 -15.3,-3.44 -23.51,-10.33 l -8.44,12.22 c 7.57,6.26 15.08,9.4 22.55,9.4 7.57,0 14.8,-2.86 21.66,-8.5 6.86,-5.68 10.3,-11.62 10.3,-17.84 0,-6.45 -2.82,-11.77 -8.48,-15.98 3.67,-2.5 9.6,-3.75 17.88,-3.75 4.45,0 8.82,2.5 13.15,7.54 v 23.48 h -11.26 l -8.47,15.05 h 96.79 l 8.47,-15.05 h -21.62 v -78.95 l -16.91,11.29 z m 87.04,-48.86 c -4.4,-5.04 -10.04,-7.54 -16.91,-7.54 -5.58,0 -11.58,2.79 -17.96,8.38 -6.39,5.58 -10.43,11.55 -12.13,17.93 v 30.09 h -8.09 l -8.47,15.05 h 93.62 l 8.47,-15.05 h -21.62 v -78.95 l -16.91,9.4 z m 0,48.86 h -30.09 v -35.7 c 0,-1.7 0.57,-3.21 1.76,-4.56 1.15,-1.35 2.44,-2.02 3.88,-2.02 5.27,0 10.11,1.35 14.54,4.04 4.39,2.7 7.69,6.48 9.91,11.36 z m 158.3,0 h -54.74 v -22.55 c 5.39,3.14 11.04,4.68 16.94,4.68 5.59,0 10.88,-3.33 15.91,-10.01 5.07,-6.67 7.58,-13.02 7.58,-19.12 0,-9.59 -3.12,-18.99 -9.4,-28.2 l -15.05,10.36 c 7.54,13.03 11.29,21.47 11.29,25.35 0,2.28 -0.61,4.08 -1.89,5.45 -1.25,1.38 -2.79,2.09 -4.68,2.09 -7.58,0 -14.47,-3.75 -20.7,-11.29 v -35.71 l -16.9,10.33 v 15.97 c -7.58,-6.25 -14.15,-9.39 -19.73,-9.39 -6.33,0 -12.77,3.36 -19.32,10.1 -6.54,6.74 -9.82,13.41 -9.82,19.99 0,6.06 2.35,11.2 7.1,15.37 4.71,4.17 10.48,6.25 17.32,6.25 6.83,0 14.98,-5.64 24.45,-16.94 v 27.27 h -54.7 l -8.48,15.05 h 126.35 z m -70.71,-34.77 c -6.26,6.25 -12.84,9.39 -19.74,9.39 -3.88,0 -7.18,-1.37 -9.94,-4.07 -2.76,-2.73 -4.14,-6.06 -4.14,-10.04 0,-2.37 0.8,-4.36 2.44,-6 1.63,-1.64 3.62,-2.44 6,-2.44 6.16,0 10.84,1.57 14.11,4.69 z m 116.94,34.77 h -21.63 v -78.95 l -16.94,7.51 v 71.44 h -14.27 l -8.48,15.05 h 26.54 c -4.91,8.28 -11.61,14.73 -20.18,19.34 -8.57,4.66 -18.13,6.97 -28.72,6.97 -5.64,0 -10.39,-1.54 -14.27,-4.66 -3.89,-3.11 -5.84,-6.73 -5.84,-10.93 0,-3.28 0.77,-6.52 2.24,-9.79 h -9.4 c -3.62,6.71 -5.42,12.67 -5.42,17.87 0,6.19 2.73,11.65 8.21,16.4 5.49,4.71 11.97,7.09 19.51,7.09 11.26,0 22.59,-3.76 33.91,-11.27 11.36,-7.54 20.82,-17.87 28.4,-31.02 h 17.86 z" transform="matrix(0.13333333,0,0,-0.13333333,0,1080)" id="path53" /><path style="fill:#21357f;fill-opacity:1;fill-rule:nonzero;stroke:none" d="m 2786.27,7152.87 h -17.92 v 38.59 c 0,11.18 -4.06,16.76 -12.22,16.76 -4.23,0 -7.66,-1.58 -10.3,-4.75 -2.63,-3.14 -3.95,-7.15 -3.95,-12.01 v -38.59 h -17.97 v 100.19 h 17.97 v -42.93 h 0.19 c 5.15,8.05 12.25,12.05 21.27,12.05 15.28,0 22.93,-9.23 22.93,-27.68 v -41.63" transform="matrix(0.15546939,0,0,-0.15546939,209.89966,1220.1707)" id="path164" /><path style="fill:#21357f;fill-opacity:1;fill-rule:nonzero;stroke:none" d="m 2711.27,7153.57 c -3.04,-1.53 -7.31,-2.3 -12.76,-2.3 -13.88,0 -20.8,7.34 -20.8,22.03 v 33.62 h -11.22 v 13.66 h 11.22 v 15.15 l 17.9,5.21 v -20.36 h 15.66 v -13.66 h -15.66 v -30.47 c 0,-7.48 2.94,-11.2 8.84,-11.2 2.44,0 4.71,0.68 6.82,2.05 z" transform="matrix(0.15546939,0,0,-0.15546939,209.89966,1220.1707)" id="path163" /><path style="fill:#21357f;fill-opacity:1;fill-rule:nonzero;stroke:none" d="m 2636.74,7152.87 v 67.71 h 17.9 v -67.71 z" transform="matrix(0.15546939,0,0,-0.15546939,209.89966,1220.1707)" id="path162" /><path style="fill:#21357f;fill-opacity:1;fill-rule:nonzero;stroke:none" d="m 2635.34,7242.88 c 0,2.75 0.96,5.03 2.92,6.88 1.95,1.85 4.48,2.77 7.56,2.77 3.02,0 5.52,-0.9 7.55,-2.73 2.02,-1.82 3.03,-4.13 3.03,-6.92 0,-2.79 -1.01,-5.13 -3.01,-6.97 -1.98,-1.85 -4.51,-2.77 -7.57,-2.77 -3.05,0 -5.56,0.94 -7.54,2.83 -1.98,1.89 -2.94,4.2 -2.94,6.91 z" transform="matrix(0.15546939,0,0,-0.15546939,209.89966,1220.1707)" id="path161" /><path style="fill:#21357f;fill-opacity:1;fill-rule:nonzero;stroke:none" d="m 2626.32,7220.58 -19.73,-67.71 h -18.8 l -11.15,42.27 c -0.55,2.06 -0.92,4.7 -1.1,7.91 h -0.37 c -0.26,-3.21 -0.71,-5.8 -1.3,-7.78 l -11.98,-42.4 h -18.56 l -19.51,67.71 h 18.43 l 10.62,-46.18 c 0.55,-2.51 0.9,-4.86 1.03,-7.1 h 0.4 c 0.11,2.2 0.5,4.64 1.15,7.34 l 12.88,45.94 h 17.02 l 11.39,-46.25 c 0.31,-1.25 0.62,-3.62 0.97,-7.17 h 0.46 c 0.11,1.85 0.48,4.25 1.08,7.17 l 10.24,46.25 z" transform="matrix(0.15546939,0,0,-0.15546939,209.89966,1220.1707)" id="path160" /><path style="fill:#21357f;fill-opacity:1;fill-rule:nonzero;stroke:none" d="m 2475,7220.58 -19.72,-67.71 h -18.8 l -11.15,42.27 c -0.55,2.06 -0.93,4.7 -1.1,7.91 h -0.37 c -0.27,-3.21 -0.71,-5.8 -1.31,-7.78 l -11.98,-42.4 h -18.56 l -19.5,67.71 h 18.43 l 10.62,-46.18 c 0.55,-2.51 0.9,-4.86 1.03,-7.1 h 0.39 c 0.11,2.2 0.51,4.64 1.15,7.34 l 12.89,45.94 h 17.02 l 11.39,-46.25 c 0.3,-1.25 0.61,-3.62 0.96,-7.17 h 0.47 c 0.11,1.85 0.48,4.25 1.07,7.17 l 10.25,46.25 z" transform="matrix(0.15546939,0,0,-0.15546939,209.89966,1220.1707)" id="path159" /><path style="fill:#21357f;fill-opacity:1;fill-rule:nonzero;stroke:none" d="m 2294.86,7186.32 c 0,11.06 3.28,19.81 9.81,26.23 6.51,6.43 15.37,9.63 26.54,9.63 10.77,0 19.29,-3.14 25.53,-9.43 6.25,-6.29 9.37,-14.71 9.37,-25.29 0,-10.99 -3.21,-19.79 -9.68,-26.36 -6.46,-6.6 -15.21,-9.9 -26.25,-9.9 -10.82,0 -19.42,3.17 -25.77,9.5 -6.36,6.34 -9.55,14.87 -9.55,25.62 z m 18.17,0.24 c 0,-14.2 5.91,-21.31 17.72,-21.31 11.39,0 17.07,7.28 17.07,21.84 0,14.07 -5.7,21.13 -17.14,21.13 -5.58,0 -9.91,-1.93 -13.02,-5.78 -3.07,-3.83 -4.63,-9.13 -4.63,-15.88 z" transform="matrix(0.15546939,0,0,-0.15546939,209.89966,1220.1707)" id="path158" /><path style="fill:#21357f;fill-opacity:1;fill-rule:nonzero;stroke:none" d="m 2289.25,7204.02 c -2.35,1.43 -5.25,2.13 -8.68,2.13 -4.51,0 -8.12,-1.84 -10.82,-5.52 -2.71,-3.67 -4.07,-8.59 -4.07,-14.77 v -32.99 h -17.97 v 67.71 h 17.97 v -13.02 h 0.2 c 3.3,9.46 9.26,14.19 17.83,14.19 2.47,0 4.31,-0.31 5.54,-0.91 z" transform="matrix(0.15546939,0,0,-0.15546939,209.89966,1220.1707)" id="path157" /><path style="fill:#21357f;fill-opacity:1;fill-rule:nonzero;stroke:none" d="m 2228.96,7159.89 c 0,-12.54 -3.45,-22.15 -10.38,-28.83 -6.91,-6.67 -16.93,-10.01 -30.08,-10.01 -8.93,0 -16.19,1.39 -21.77,4.18 v 15.59 c 7.07,-4.07 14.2,-6.11 21.33,-6.11 7.3,0 12.95,1.93 16.98,5.83 4,3.89 6.02,9.41 6.02,16.58 v 6 h -0.26 c -4.91,-7.94 -12.14,-11.92 -21.71,-11.92 -8.42,0 -15.21,3.03 -20.36,9.09 -5.17,6.04 -7.74,14.2 -7.74,24.47 0,11.39 2.83,20.47 8.49,27.24 5.63,6.8 13.08,10.18 22.32,10.18 8.37,0 14.71,-3.29 19,-9.91 h 0.26 v 8.31 h 17.9 z m -17.73,31.64 c 0,4.6 -1.43,8.53 -4.31,11.79 -2.88,3.25 -6.53,4.9 -10.95,4.9 -5.14,0 -9.23,-2 -12.27,-6 -3.03,-4.01 -4.55,-9.57 -4.55,-16.76 0,-6.18 1.45,-11.08 4.33,-14.73 2.88,-3.65 6.69,-5.48 11.46,-5.48 4.86,0 8.79,1.83 11.79,5.48 3.01,3.65 4.5,8.33 4.5,14.09 z" transform="matrix(0.15546939,0,0,-0.15546939,209.89966,1220.1707)" id="path156" /><path style="fill:#21357f;fill-opacity:1;fill-rule:nonzero;stroke:none" d="m 2032.85,7186.32 c 0,11.06 3.28,19.81 9.81,26.23 6.51,6.43 15.37,9.63 26.54,9.63 10.78,0 19.28,-3.14 25.53,-9.43 6.24,-6.29 9.37,-14.71 9.37,-25.29 0,-10.99 -3.21,-19.79 -9.67,-26.36 -6.47,-6.6 -15.22,-9.9 -26.26,-9.9 -10.82,0 -19.42,3.17 -25.78,9.5 -6.35,6.34 -9.54,14.87 -9.54,25.62 z m 18.17,0.24 c 0,-14.2 5.91,-21.31 17.72,-21.31 11.39,0 17.06,7.28 17.06,21.84 0,14.07 -5.69,21.13 -17.13,21.13 -5.58,0 -9.91,-1.93 -13.01,-5.78 -3.09,-3.83 -4.64,-9.13 -4.64,-15.88 z" transform="matrix(0.15546939,0,0,-0.15546939,209.89966,1220.1707)" id="path155" /><path style="fill:#21357f;fill-opacity:1;fill-rule:nonzero;stroke:none" d="m 2024.91,7153.57 c -3.03,-1.53 -7.3,-2.3 -12.75,-2.3 -13.87,0 -20.8,7.34 -20.8,22.03 v 33.62 h -11.22 v 13.66 h 11.22 v 15.15 l 17.9,5.21 v -20.36 h 15.65 v -13.66 h -15.65 v -30.47 c 0,-7.48 2.94,-11.2 8.84,-11.2 2.44,0 4.7,0.68 6.81,2.05 z" transform="matrix(0.15546939,0,0,-0.15546939,209.89966,1220.1707)" id="path154" /><path style="fill:#21357f;fill-opacity:1;fill-rule:nonzero;stroke:none" d="m 1926.86,7181.68 h -45.22 c 0.73,-11.52 7.26,-17.29 19.58,-17.29 7.52,0 14.23,1.99 20.1,5.94 v -13.65 c -6.27,-3.65 -14.32,-5.48 -24.15,-5.48 -10.53,0 -18.71,3.06 -24.58,9.15 -5.85,6.09 -8.8,14.62 -8.8,25.57 0,10.74 3.14,19.46 9.44,26.19 6.31,6.73 14.18,10.07 23.61,10.07 9.46,0 16.82,-2.88 22.1,-8.68 5.28,-5.81 7.92,-13.77 7.92,-23.9 z m -16.93,11.78 c 0,10.74 -4.42,16.1 -13.29,16.1 -3.69,0 -6.92,-1.45 -9.74,-4.37 -2.81,-2.93 -4.57,-6.84 -5.26,-11.73 z" transform="matrix(0.15546939,0,0,-0.15546939,209.89966,1220.1707)" id="path153" /><path style="fill:#21357f;fill-opacity:1;fill-rule:nonzero;stroke:none" d="m 1831.46,7152.87 v 100.19 h 17.9 v -100.19 z" transform="matrix(0.15546939,0,0,-0.15546939,209.89966,1220.1707)" id="path152" /><path style="fill:#21357f;fill-opacity:1;fill-rule:nonzero;stroke:none" d="m 1767.04,7161.32 v -39.63 h -17.97 v 98.89 h 17.97 v -10.69 h 0.19 c 5.23,8.2 12.67,12.29 22.3,12.29 8.53,0 15.26,-2.97 20.19,-8.95 4.92,-5.95 7.39,-14.16 7.39,-24.6 0,-11.26 -2.82,-20.3 -8.43,-27.16 -5.61,-6.84 -13.02,-10.27 -22.25,-10.27 -8.33,0 -14.73,3.37 -19.2,10.12 z m -0.27,21 c 0,-4.91 1.43,-8.98 4.27,-12.21 2.84,-3.25 6.46,-4.86 10.88,-4.86 5.24,0 9.35,2.03 12.29,6.12 2.97,4.06 4.47,9.8 4.47,17.19 0,13.11 -5.19,19.66 -15.53,19.66 -4.9,0 -8.86,-1.83 -11.87,-5.47 -2.99,-3.66 -4.51,-8.25 -4.51,-13.79 z" transform="matrix(0.15546939,0,0,-0.15546939,209.89966,1220.1707)" id="path151" /><path style="fill:#21357f;fill-opacity:1;fill-rule:nonzero;stroke:none" d="m 1663.18,7186.32 c 0,11.06 3.27,19.81 9.8,26.23 6.51,6.43 15.38,9.63 26.55,9.63 10.77,0 19.28,-3.14 25.52,-9.43 6.25,-6.29 9.38,-14.71 9.38,-25.29 0,-10.99 -3.22,-19.79 -9.68,-26.36 -6.47,-6.6 -15.22,-9.9 -26.26,-9.9 -10.81,0 -19.42,3.17 -25.77,9.5 -6.35,6.34 -9.54,14.87 -9.54,25.62 z m 18.16,0.24 c 0,-14.2 5.91,-21.31 17.72,-21.31 11.39,0 17.07,7.28 17.07,21.84 0,14.07 -5.7,21.13 -17.13,21.13 -5.59,0 -9.92,-1.93 -13.02,-5.78 -3.08,-3.83 -4.64,-9.13 -4.64,-15.88 z" transform="matrix(0.15546939,0,0,-0.15546939,209.89966,1220.1707)" id="path150" /><path style="fill:#21357f;fill-opacity:1;fill-rule:nonzero;stroke:none" d="m 1653.7,7181.68 h -45.21 c 0.72,-11.52 7.26,-17.29 19.57,-17.29 7.52,0 14.23,1.99 20.1,5.94 v -13.65 c -6.27,-3.65 -14.32,-5.48 -24.15,-5.48 -10.53,0 -18.71,3.06 -24.58,9.15 -5.85,6.09 -8.8,14.62 -8.8,25.57 0,10.74 3.15,19.46 9.44,26.19 6.31,6.73 14.18,10.07 23.61,10.07 9.46,0 16.82,-2.88 22.1,-8.68 5.28,-5.81 7.92,-13.77 7.92,-23.9 z m -16.93,11.78 c 0,10.74 -4.42,16.1 -13.29,16.1 -3.69,0 -6.92,-1.45 -9.74,-4.37 -2.81,-2.93 -4.57,-6.84 -5.25,-11.73 z" transform="matrix(0.15546939,0,0,-0.15546939,209.89966,1220.1707)" id="path149" /><path style="fill:#21357f;fill-opacity:1;fill-rule:nonzero;stroke:none" d="m 1530.07,7161.32 v -39.63 h -17.96 v 98.89 h 17.96 v -10.69 h 0.2 c 5.23,8.2 12.66,12.29 22.3,12.29 8.53,0 15.26,-2.97 20.18,-8.95 4.93,-5.95 7.39,-14.16 7.39,-24.6 0,-11.26 -2.81,-20.3 -8.42,-27.16 -5.61,-6.84 -13.02,-10.27 -22.26,-10.27 -8.33,0 -14.73,3.37 -19.19,10.12 z m -0.26,21 c 0,-4.91 1.42,-8.98 4.26,-12.21 2.84,-3.25 6.47,-4.86 10.89,-4.86 5.23,0 9.34,2.03 12.29,6.12 2.97,4.06 4.46,9.8 4.46,17.19 0,13.11 -5.19,19.66 -15.52,19.66 -4.9,0 -8.86,-1.83 -11.87,-5.47 -3,-3.66 -4.51,-8.25 -4.51,-13.79 z" transform="matrix(0.15546939,0,0,-0.15546939,209.89966,1220.1707)" id="path148" /><path style="fill:#21357f;fill-opacity:1;fill-rule:nonzero;stroke:none" d="M 1446.9,7152.87 H 1429 v 9.99 h -0.32 c -4.82,-7.77 -12.01,-11.66 -21.58,-11.66 -8.51,0 -15.32,3.06 -20.42,9.15 -5.13,6.09 -7.68,14.38 -7.68,24.87 0,11.13 2.86,20.05 8.57,26.83 5.72,6.77 13.16,10.13 22.31,10.13 8.88,0 15.14,-3.27 18.8,-9.85 h 0.32 v 40.73 h 17.9 z m -17.65,38.73 c 0,4.77 -1.45,8.73 -4.38,11.87 -2.92,3.17 -6.6,4.75 -11.01,4.75 -5.15,0 -9.22,-2.02 -12.21,-6.07 -2.99,-4.02 -4.49,-9.5 -4.49,-16.42 0,-6.49 1.45,-11.53 4.34,-15.11 2.88,-3.58 6.75,-5.37 11.65,-5.37 4.73,0 8.6,1.85 11.59,5.59 3.01,3.73 4.51,8.51 4.51,14.31 z" transform="matrix(0.15546939,0,0,-0.15546939,209.89966,1220.1707)" id="path147" /><path style="fill:#21357f;fill-opacity:1;fill-rule:nonzero;stroke:none" d="m 1297.24,7186.32 c 0,11.06 3.28,19.81 9.81,26.23 6.5,6.43 15.37,9.63 26.54,9.63 10.77,0 19.29,-3.14 25.53,-9.43 6.24,-6.29 9.37,-14.71 9.37,-25.29 0,-10.99 -3.21,-19.79 -9.68,-26.36 -6.46,-6.6 -15.22,-9.9 -26.25,-9.9 -10.82,0 -19.42,3.17 -25.77,9.5 -6.36,6.34 -9.55,14.87 -9.55,25.62 z m 18.16,0.24 c 0,-14.2 5.92,-21.31 17.73,-21.31 11.39,0 17.06,7.28 17.06,21.84 0,14.07 -5.69,21.13 -17.13,21.13 -5.58,0 -9.92,-1.93 -13.02,-5.78 -3.08,-3.83 -4.64,-9.13 -4.64,-15.88 z" transform="matrix(0.15546939,0,0,-0.15546939,209.89966,1220.1707)" id="path146" /><path style="fill:#21357f;fill-opacity:1;fill-rule:nonzero;stroke:none" d="m 1215.48,7186.32 c 0,11.06 3.28,19.81 9.81,26.23 6.51,6.43 15.37,9.63 26.54,9.63 10.78,0 19.29,-3.14 25.53,-9.43 6.25,-6.29 9.37,-14.71 9.37,-25.29 0,-10.99 -3.21,-19.79 -9.68,-26.36 -6.46,-6.6 -15.21,-9.9 -26.25,-9.9 -10.82,0 -19.42,3.17 -25.78,9.5 -6.35,6.34 -9.54,14.87 -9.54,25.62 z m 18.16,0.24 c 0,-14.2 5.92,-21.31 17.73,-21.31 11.39,0 17.06,7.28 17.06,21.84 0,14.07 -5.69,21.13 -17.13,21.13 -5.59,0 -9.91,-1.93 -13.01,-5.78 -3.08,-3.83 -4.65,-9.13 -4.65,-15.88 z" transform="matrix(0.15546939,0,0,-0.15546939,209.89966,1220.1707)" id="path145" /><path style="fill:#21357f;fill-opacity:1;fill-rule:nonzero;stroke:none" d="m 1202.02,7159.32 c -9.32,-5.41 -20.58,-8.12 -33.75,-8.12 -14.69,0 -26.37,4.26 -35.06,12.78 -8.66,8.53 -13.01,20.14 -13.01,34.83 0,14.78 4.73,26.87 14.18,36.3 9.46,9.42 21.95,14.14 37.5,14.14 10.13,0 18.93,-1.47 26.41,-4.37 v -17.86 c -7.31,4.42 -16.28,6.64 -26.94,6.64 -9.39,0 -17.05,-3.1 -22.96,-9.3 -5.92,-6.22 -8.86,-14.4 -8.86,-24.58 0,-10.4 2.66,-18.48 7.98,-24.26 5.35,-5.78 12.64,-8.66 21.92,-8.66 5.66,0 10.38,0.92 14.16,2.77 v 20.93 h -19.46 v 14.96 h 37.89 z" transform="matrix(0.15546939,0,0,-0.15546939,209.89966,1220.1707)" id="path55" /><path style="fill:#21357f;fill-opacity:1;fill-rule:evenodd;stroke:none;stroke-width:0.148746" d="m 137.36029,79.030052 v 5.517001 c -8.34035,8.298556 -16.68175,16.595627 -25.02314,24.892687 -7.98991,-7.949 -15.98042,-15.89651 -23.97077,-23.845513 v -5.517001 c 7.99096,7.949003 15.98026,15.898006 23.97077,23.847004 8.3408,-8.298553 16.68279,-16.595622 25.02314,-24.894178" id="path93" /><path style="fill:#21357f;fill-opacity:1;fill-rule:evenodd;stroke:none;stroke-width:0.148746" d="M 86.310556,80.147137 V 85.66265 C 78.308599,93.623553 70.307088,101.58446 62.304987,109.54536 53.983825,101.26614 45.661614,92.988405 37.340598,84.709186 v -5.515513 c 8.321016,8.277732 16.643227,16.556951 24.964389,24.834687 8.002101,-7.960906 16.003612,-15.921808 24.005569,-23.881223 z" id="path92" /><path style="fill:#21357f;fill-opacity:1;fill-rule:evenodd;stroke:none;stroke-width:0.148746" d="m 112.33715,95.096141 c 8.3408,-8.298557 16.68279,-16.595626 25.02314,-24.894182 v 5.517001 c -8.34035,8.297068 -16.68175,16.595624 -25.02314,24.89269 C 104.34724,92.664139 96.35734,84.713648 88.36638,76.766134 v -5.517001 c 7.99035,7.949002 15.98086,15.898006 23.97077,23.847008 z" id="path91" /><path style="fill:#21357f;fill-opacity:1;fill-rule:evenodd;stroke:none;stroke-width:0.148746" d="m 86.310556,71.319044 v 5.517 C 78.308599,84.795459 70.306497,92.756361 62.304987,100.71578 53.983222,92.438044 45.661614,84.160312 37.340598,75.882581 V 70.36558 c 8.321016,8.277732 16.642624,16.556951 24.964389,24.834683 8.002101,-7.959414 16.003612,-15.920317 24.005569,-23.881219 z" id="path90" /><path style="fill:#21357f;fill-opacity:1;fill-rule:evenodd;stroke:none;stroke-width:0.148746" d="m 137.36029,61.375353 v 5.515513 C 129.01994,75.189422 120.67854,83.486491 112.33715,91.785048 104.34724,83.836046 96.35673,75.887043 88.36638,67.93804 v -5.517001 c 7.99035,7.949003 15.98086,15.898005 23.97077,23.847009 8.3408,-8.29707 16.68279,-16.595626 25.02314,-24.892695 z" id="path89" /><path style="fill:#21357f;fill-opacity:1;fill-rule:evenodd;stroke:none;stroke-width:0.148746" d="m 86.310556,62.490951 v 5.517 C 78.309045,75.967366 70.307088,83.928268 62.304987,91.88917 53.983222,83.609951 45.661614,75.332219 37.340598,67.054487 v -5.517001 c 8.321607,8.277733 16.643227,16.556952 24.964389,24.834684 8.00151,-7.960903 16.003612,-15.921805 24.005569,-23.881219 z" id="path88" /><path style="fill:#21357f;fill-opacity:1;fill-rule:evenodd;stroke:none;stroke-width:0.148746" d="m 126.85152,68.486914 -0.44386,0.443264 -2.05523,2.055674 -0.26552,0.266256 -11.64519,-11.584363 -11.73118,11.670635 -2.7652,-2.765193 c 4.83204,-4.807481 9.6645,-9.614962 14.49638,-14.422442 4.80346,4.779219 9.60752,9.55695 14.4098,14.336169 z" id="path79" /><path style="fill:#21357f;fill-opacity:1;fill-rule:evenodd;stroke:none;stroke-width:0.148746" d="m 131.27732,64.061712 -2.7652,2.763706 c -5.35606,-5.328093 -10.71316,-10.656186 -16.0704,-15.985766 -5.38507,5.357843 -10.77073,10.715684 -16.15638,16.073526 l -2.76519,-2.765194 c 6.30714,-6.275606 12.61443,-12.549726 18.92157,-18.823845 6.27872,6.245858 12.55746,12.491715 18.8356,18.737573 z" id="path77" /><path style="fill:#21357f;fill-opacity:1;fill-rule:evenodd;stroke:none;stroke-width:0.148746" d="m 135.70251,59.636509 -2.76518,2.763707 C 126.106,55.603997 119.27423,48.807778 112.44172,42.011559 105.58079,48.836039 98.72046,55.662008 91.86014,62.486488 l -2.76579,-2.763706 c 7.783,-7.743734 15.56555,-15.484491 23.34737,-23.226736 7.75399,7.712496 15.50799,15.42648 23.26079,23.140463 z" id="path75" /><path style="fill:#21357f;fill-opacity:1;fill-rule:evenodd;stroke:none;stroke-width:0.148746" d="M 62.3386,54.184957 76.944893,68.714495 74.179104,71.47969 62.3386,59.701957 50.677785,71.301194 47.912588,68.536 c 4.80867,-4.783681 9.617341,-9.567362 14.426012,-14.351043 z" id="path73" /><path style="fill:#21357f;fill-opacity:1;fill-rule:evenodd;stroke:none;stroke-width:0.148746" d="m 81.370099,64.289293 -2.765198,2.765194 C 73.182652,61.660946 67.760258,56.267405 62.3386,50.872376 56.976147,56.207906 51.614441,61.541949 46.252579,66.875991 L 43.48679,64.110798 C 49.770727,57.85899 56.054663,51.60867 62.3386,45.356864 c 6.343889,6.311305 12.687621,12.622611 19.031499,18.932429 z" id="path71" /><path style="fill:#21357f;fill-opacity:1;fill-rule:evenodd;stroke:none;stroke-width:0.148746" d="M 101.94811,43.711729 99.18292,46.476924 87.407568,34.763152 75.74094,46.368338 72.975753,43.601657 c 4.810456,-4.783682 9.620913,-9.56885 14.431815,-14.355506 4.846442,4.822355 9.693492,9.644711 14.540542,14.465578 z" id="path69" /><path style="fill:#21357f;fill-opacity:1;fill-rule:evenodd;stroke:none;stroke-width:0.148746" d="m 85.795307,59.86409 -2.765198,2.765195 C 76.133184,55.767617 69.235524,48.907438 62.3386,42.045771 55.501483,48.846451 48.663909,55.648621 41.826781,62.450789 L 39.061595,59.685595 C 46.819604,51.965661 54.579397,44.247216 62.3386,36.52877 c 7.819155,7.777944 15.637551,15.557376 23.456707,23.33532 z" id="path67" /><path style="fill:#21357f;fill-opacity:1;fill-rule:evenodd;stroke:none;stroke-width:0.148746" d="m 106.37331,39.286526 -2.76519,2.765194 C 98.20744,36.679004 92.8078,31.306287 87.406965,25.935059 82.042882,31.270588 76.679235,36.607606 71.315745,41.943136 l -2.765198,-2.766681 c 6.285722,-6.251808 12.570852,-12.505102 18.857021,-18.75691 6.321122,6.288994 12.644022,12.577988 18.965742,18.866981 z" id="path65" /><path style="fill:#21357f;fill-opacity:1;fill-rule:evenodd;stroke:none;stroke-width:0.148746" d="m 110.79911,34.861324 -2.76579,2.765193 C 101.15797,30.785676 94.28247,23.94632 87.407568,17.106965 80.568208,23.909134 73.729295,30.714277 66.889947,37.517933 l -2.765198,-2.766681 c 7.760988,-7.719934 15.521384,-15.439867 23.282819,-23.161288 7.796382,7.758608 15.593962,15.514241 23.391542,23.27136 z" id="path59" /></g></svg>
